<svg width="28" height="25" viewBox="0 0 28 25" fill="none" xmlns="http://www.w3.org/2000/svg">
<path d="M25.0393 12.3919L14.8185 3.17813L14.1334 2.56022C13.9773 2.42035 13.7662 2.34186 13.5461 2.34186C13.3261 2.34186 13.115 2.42035 12.9589 2.56022L2.05294 12.3919C1.89299 12.5357 1.76658 12.7068 1.68117 12.8953C1.59576 13.0838 1.55308 13.2858 1.55565 13.4894C1.56623 14.3292 2.34126 14.9996 3.27236 14.9996H4.39655V22.77H22.6957V14.9996H23.8437C24.296 14.9996 24.7219 14.8397 25.042 14.5511C25.1996 14.4094 25.3244 14.2409 25.4094 14.0554C25.4943 13.8699 25.5375 13.671 25.5366 13.4703C25.5366 13.0647 25.3594 12.6806 25.0393 12.3919ZM15.0274 21.0523H12.0649V16.1853H15.0274V21.0523ZM20.7912 13.2818V21.0523H16.7203V15.6127C16.7203 15.0855 16.2468 14.6584 15.6623 14.6584H11.43C10.8454 14.6584 10.372 15.0855 10.372 15.6127V21.0523H6.30106V13.2818H3.76171L13.5488 4.46167L14.1598 5.01278L23.3332 13.2818H20.7912Z" fill="#A7620D"/>
</svg>
