<svg width="30" height="27" viewBox="0 0 30 27" fill="none" xmlns="http://www.w3.org/2000/svg">
<path d="M2.54761 8.03936C2.54761 7.45622 2.80444 6.89697 3.26161 6.48463C3.71879 6.07229 4.33884 5.84064 4.98538 5.84064H24.4876C25.1341 5.84064 25.7542 6.07229 26.2113 6.48463C26.6685 6.89697 26.9254 7.45622 26.9254 8.03936V19.033C26.9254 19.6161 26.6685 20.1753 26.2113 20.5877C25.7542 21 25.1341 21.2317 24.4876 21.2317H4.98538C4.33884 21.2317 3.71879 21 3.26161 20.5877C2.80444 20.1753 2.54761 19.6161 2.54761 19.033V8.03936Z" stroke="#A7620D" stroke-width="2" stroke-linecap="round" stroke-linejoin="round"/>
<path d="M14.7365 16.8343C16.756 16.8343 18.3932 15.3577 18.3932 13.5362C18.3932 11.7147 16.756 10.2381 14.7365 10.2381C12.717 10.2381 11.0798 11.7147 11.0798 13.5362C11.0798 15.3577 12.717 16.8343 14.7365 16.8343Z" stroke="#A7620D" stroke-width="2" stroke-linecap="round" stroke-linejoin="round"/>
<path d="M2.54761 10.2381C3.84068 10.2381 5.0808 9.77478 5.99514 8.9501C6.90948 8.12542 7.42316 7.00691 7.42316 5.84064" stroke="#A7620D" stroke-width="2" stroke-linecap="round" stroke-linejoin="round"/>
<path d="M22.0498 21.2317C22.0498 20.0654 22.5635 18.9469 23.4778 18.1222C24.3922 17.2975 25.6323 16.8342 26.9254 16.8342" stroke="#A7620D" stroke-width="2" stroke-linecap="round" stroke-linejoin="round"/>
</svg>
